<?xml version="1.0" encoding="utf-8"?>
<!-- Generator: Adobe Illustrator 27.5.0, SVG Export Plug-In . SVG Version: 6.00 Build 0)  -->
<svg version="1.1" xmlns="http://www.w3.org/2000/svg" xmlns:xlink="http://www.w3.org/1999/xlink" x="0px" y="0px"
	 viewBox="0 0 3710 3710" style="enable-background:new 0 0 3710 3710;" xml:space="preserve">
<g id="Background">
	<rect style="fill:#FFFFFF;" width="3710" height="3710"/>
</g>
<g id="Illustration">
	<g>
		<linearGradient id="SVGID_1_" gradientUnits="userSpaceOnUse" x1="3577.6116" y1="4066.4653" x2="1131.1965" y2="1028.1713">
			<stop  offset="0" style="stop-color:#DAE3FE"/>
			<stop  offset="1" style="stop-color:#E9EFFD"/>
		</linearGradient>
		<path style="fill:url(#SVGID_1_);" d="M2904.587,2868.272c-56.193,59.158-109.363,97.308-151.371,127.449
			c-493.798,354.305-1078.091,251.027-1202.27,225.805c-183.373-37.244-537.83-109.236-794.095-410.599
			c-387.709-455.937-327.337-1174.254-26.604-1648.425c55.009-86.734,345.581-568.127,936.168-645.328
			c357.417-46.721,774.05,47.51,1075.764,300.286C3375.505,1348.062,3330.419,2419.97,2904.587,2868.272z"/>
		<g>
			
				<linearGradient id="SVGID_00000106148238136379841590000008483103820373358000_" gradientUnits="userSpaceOnUse" x1="1464.9475" y1="1333.5293" x2="1034.8372" y2="351.3361">
				<stop  offset="0" style="stop-color:#4F52FF"/>
				<stop  offset="1" style="stop-color:#4042E2"/>
			</linearGradient>
			<path style="fill:url(#SVGID_00000106148238136379841590000008483103820373358000_);" d="M2560.349,1477.489
				c-23.643,538.569-514.073,954.477-1095.405,928.957C883.611,2380.926,431.515,1923.64,455.158,1385.071
				c23.643-538.569,514.073-954.477,1095.406-928.957C2131.896,481.635,2583.992,938.92,2560.349,1477.489z"/>
			<ellipse style="opacity:0.19;fill:#91B3FA;" cx="1450.73" cy="1360.856" rx="826.757" ry="781.021"/>
			<g style="opacity:0.68;">
				<path style="fill:#FFFFFF;" d="M1776.915,1435.995c-0.253,172.158-12.059,344.667-42.398,514.387
					c-7.681,42.395-16.585,84.587-27.195,126.378c-10.642,41.775-22.928,83.187-37.971,123.677
					c-15.169,40.384-32.775,80.187-56.649,116.565c-12.031,18.056-25.677,35.357-42.517,49.589
					c-8.417,7.071-17.662,13.342-27.83,17.936c-10.147,4.564-21.237,7.454-32.492,7.655c-11.241,0.328-22.498-1.872-32.846-6.039
					c-10.388-4.127-19.856-10.115-28.477-16.952c-17.242-13.789-31.189-30.9-43.434-48.814
					c-24.298-36.119-42.143-75.842-57.47-116.162c-15.233-40.42-27.64-81.8-38.375-123.549
					c-10.716-41.763-19.709-83.937-27.454-126.318c-15.456-84.781-25.997-170.377-33.11-256.209
					c-7.062-85.846-10.602-171.965-11.037-258.098c-0.212-43.061,0.964-86.115,2.494-129.142
					c1.613-43.026,3.982-86.025,7.15-128.965c6.369-85.87,15.882-171.549,30.024-256.524c7.096-42.478,15.37-84.776,25.322-126.7
					c9.978-41.91,21.573-83.487,35.956-124.162c7.229-20.319,15.133-40.421,24.147-60.05c9-19.625,19.073-38.822,30.91-56.971
					c11.865-18.07,25.504-35.318,42.488-49.124c8.491-6.843,17.845-12.797,28.094-16.831c10.208-4.086,21.283-6.155,32.301-5.736
					c11.024,0.314,21.891,3.062,31.918,7.478c10.041,4.437,19.267,10.471,27.737,17.311c16.942,13.767,30.964,30.6,43.404,48.276
					c24.731,35.598,43.376,74.857,59.526,114.802c16.032,40.055,29.27,81.147,40.8,122.663
					c11.489,41.536,21.218,83.535,29.637,125.781C1762.885,1091.277,1776.418,1263.807,1776.915,1435.995z M1764.173,1435.995
					c0.158-85.782-3.103-171.586-10.232-257.07c-7.028-85.481-17.676-170.716-33.538-255.008
					c-7.921-42.14-17.146-84.041-28.124-125.478c-11.016-41.416-23.731-82.41-39.212-122.343
					c-15.591-39.82-33.672-78.942-57.666-114.287c-12.061-17.548-25.665-34.214-41.991-47.774
					c-8.159-6.739-17.018-12.661-26.605-17.022c-9.576-4.309-19.891-7.133-30.381-7.408c-10.483-0.332-20.953,1.777-30.65,5.767
					c-9.732,3.951-18.666,9.764-26.81,16.477c-16.295,13.538-29.498,30.567-40.973,48.476
					c-11.454,17.986-21.204,37.062-29.901,56.587c-8.711,19.529-16.333,39.551-23.288,59.797
					c-13.836,40.533-24.915,81.999-34.386,123.802c-9.445,41.819-17.223,84.018-23.826,126.394
					c-13.159,84.772-21.704,170.239-27.114,255.863c-5.464,85.635-7.351,171.465-7.197,257.257
					c-0.227,85.778,2.639,171.58,9.014,257.125c6.426,85.531,16.268,170.847,30.999,255.325
					c7.381,42.23,16.004,84.244,26.333,125.825c10.346,41.566,22.353,82.743,37.13,122.886
					c14.858,40.036,32.232,79.425,55.714,114.902c11.817,17.59,25.263,34.274,41.559,47.501
					c8.143,6.562,17.005,12.241,26.585,16.129c9.551,3.898,19.799,6.065,30.066,5.718c10.264-0.264,20.377-2.975,29.766-7.282
					c9.403-4.337,18.076-10.301,26.042-17.101c15.943-13.683,29.102-30.576,40.712-48.318
					c23.07-35.757,40.194-75.235,54.885-115.338c14.579-40.217,26.452-81.427,36.694-123.02
					c10.213-41.609,18.732-83.643,26.04-125.885c14.631-84.494,24.352-169.82,30.815-255.351
					C1761.183,1607.604,1764.207,1521.794,1764.173,1435.995z"/>
				<path style="fill:#FFFFFF;" d="M2211.217,1435.995c-0.595,110.865-14.844,221.779-44.523,328.691
					c-30.196,106.667-75.716,209.283-137.516,301.412c-30.903,46.014-65.914,89.327-105.034,128.623
					c-39.103,39.285-82.35,74.54-129.293,104.086c-46.986,29.432-97.735,52.993-150.859,68.977
					c-53.092,16.023-108.518,24.381-163.993,24.437c-55.475-0.005-110.916-8.313-164.037-24.292
					c-53.152-15.94-103.942-39.463-150.977-68.866c-46.992-29.515-90.303-64.739-129.469-104.008
					c-39.185-39.279-74.265-82.583-105.238-128.597c-61.924-92.141-107.54-194.802-137.878-301.522
					c-14.933-53.458-26.03-107.971-33.382-162.97c-7.313-55.008-10.987-110.48-11.239-165.972
					c0.287-55.493,3.995-110.96,11.342-165.959c7.387-54.99,18.526-109.487,33.494-162.924
					c30.414-106.676,76.099-209.268,138.064-301.313c30.987-45.972,66.071-89.228,105.251-128.454
					c39.167-39.209,82.447-74.4,129.431-103.822c47.021-29.326,97.799-52.675,150.858-68.61
					c53.025-16.001,108.377-24.346,163.779-24.401c55.402,0.101,110.739,8.493,163.739,24.534
					c53.033,15.977,103.767,39.372,150.739,68.73c46.933,29.455,90.151,64.675,129.253,103.902
					c39.115,39.244,74.131,82.509,105.047,128.481c61.839,92.033,107.432,194.58,137.702,301.204
					C2196.222,1214.235,2210.546,1325.129,2211.217,1435.995z M2196.609,1435.995c-0.16-109.607-13.813-219.331-42.733-325.135
					c-29.08-105.641-72.867-207.629-133.147-299.347c-30.124-45.812-64.338-88.993-102.658-128.245
					c-38.335-39.191-80.679-74.648-126.988-104.119c-46.366-29.306-96.435-52.894-148.936-68.849
					c-52.474-15.967-107.261-24.36-162.148-24.542c-54.887,0.229-109.659,8.669-162.107,24.675
					c-52.474,15.997-102.5,39.632-148.816,68.969c-46.259,29.504-88.54,64.991-126.811,104.198
					c-38.255,39.27-72.4,82.459-102.454,128.272c-60.155,91.706-103.848,193.648-132.785,299.238
					c-14.416,52.855-24.854,106.75-31.927,161.045c-7.09,54.302-10.588,109.063-10.71,163.84
					c0.157,54.776,3.69,109.532,10.813,163.826c7.108,54.286,17.588,108.165,32.039,160.998
					c29.012,105.547,72.776,207.42,132.972,299.03c30.066,45.77,64.216,88.912,102.467,128.129
					c38.271,39.148,80.521,74.602,126.771,104.012c46.302,29.261,96.316,52.721,148.698,68.713
					c52.353,16.029,107.036,24.506,161.85,24.784c54.815-0.228,109.512-8.654,161.894-24.639
					c52.41-15.948,102.464-39.371,148.815-68.602c46.299-29.381,88.613-64.803,126.948-103.935
					c38.316-39.2,72.535-82.333,102.67-128.103c60.321-91.623,104.18-193.541,133.333-299.14
					C2182.645,1655.306,2196.374,1545.601,2196.609,1435.995z"/>
				<path style="fill:#FFFFFF;" d="M626.724,1057.613l219.594-1.774l219.595-1.005l439.188-0.811l439.189,0.892l219.594,1.098
					l219.594,1.915c0.356,0.003,0.642,0.294,0.638,0.651c-0.002,0.352-0.288,0.636-0.638,0.639l-219.594,1.915l-219.594,1.098
					l-439.189,0.893l-439.188-0.811l-219.595-1.005l-219.594-1.774c-0.53-0.005-0.957-0.438-0.953-0.968
					C625.776,1058.041,626.202,1057.618,626.724,1057.613z"/>
				<path style="fill:#FFFFFF;" d="M881.48,689.812c51.968-0.824,103.937-1.176,155.905-1.774l155.905-1.005
					c51.969-0.428,103.937-0.382,155.906-0.514l155.905-0.297l311.81,0.893l155.905,1.098c51.969,0.652,103.937,1.033,155.906,1.915
					c0.356,0.006,0.639,0.3,0.634,0.656c-0.006,0.348-0.289,0.628-0.634,0.634c-51.969,0.882-103.937,1.263-155.906,1.915
					l-155.905,1.098l-311.81,0.893l-155.905-0.297c-51.969-0.132-103.937-0.086-155.906-0.514l-155.905-1.005
					c-51.968-0.597-103.937-0.95-155.905-1.774c-0.53-0.008-0.953-0.445-0.945-0.976C880.543,690.237,880.964,689.82,881.48,689.812
					z"/>
				<path style="fill:#FFFFFF;" d="M550.413,1425.415l238.672-1.768l238.672-1.011l477.344-0.811l477.344,0.893l238.672,1.099
					l238.672,1.914c0.356,0.003,0.643,0.294,0.64,0.65c-0.003,0.353-0.289,0.637-0.64,0.64l-238.672,1.914l-238.672,1.099
					l-477.344,0.893l-477.344-0.811l-238.672-1.011l-238.672-1.768c-0.53-0.004-0.957-0.437-0.953-0.968
					C549.464,1425.842,549.889,1425.419,550.413,1425.415z"/>
				<path style="fill:#FFFFFF;" d="M626.724,1793.216l219.594-1.773l219.595-1.005l439.188-0.811l439.189,0.893l219.594,1.098
					l219.594,1.915c0.356,0.003,0.642,0.295,0.638,0.651c-0.002,0.352-0.288,0.636-0.638,0.639l-219.594,1.915l-219.594,1.098
					l-439.189,0.893l-439.188-0.811l-219.595-1.005l-219.594-1.774c-0.53-0.004-0.957-0.438-0.953-0.968
					C625.776,1793.644,626.202,1793.22,626.724,1793.216z"/>
				<path style="fill:#FFFFFF;" d="M2160.145,2165.345H912.903c-1.861,0-3.367-1.507-3.367-3.367c0-1.859,1.506-3.367,3.367-3.367
					h1247.242c1.861,0,3.367,1.508,3.367,3.367C2163.511,2163.838,2162.005,2165.345,2160.145,2165.345z"/>
			</g>
		</g>
		<g>
			
				<linearGradient id="SVGID_00000031891588027570738600000014437758167350990484_" gradientUnits="userSpaceOnUse" x1="1888.783" y1="2337.2212" x2="1797.439" y2="3692.1565">
				<stop  offset="0" style="stop-color:#09005D"/>
				<stop  offset="1" style="stop-color:#1A0F91"/>
			</linearGradient>
			<polygon style="fill:url(#SVGID_00000031891588027570738600000014437758167350990484_);" points="1520.953,2547.437 
				1455.529,3134.203 2214.579,3134.203 2115.712,2547.437 			"/>
			
				<linearGradient id="SVGID_00000086691565970726235240000010906409007835618238_" gradientUnits="userSpaceOnUse" x1="1822.619" y1="2353.085" x2="1822.619" y2="3058.4614">
				<stop  offset="0" style="stop-color:#09005D"/>
				<stop  offset="1" style="stop-color:#1A0F91"/>
			</linearGradient>
			<path style="fill:url(#SVGID_00000086691565970726235240000010906409007835618238_);" d="M2378.078,3254.255H1267.156
				c-30.181,0-52.845-21.485-47.009-44.563l14.255-56.376c4.287-16.954,22.938-29.401,45.092-30.093l1070.969-33.419
				c23.145-0.722,43.638,11.563,48.681,29.183l25.698,89.795C2431.519,3232.111,2408.746,3254.255,2378.078,3254.255z"/>
			
				<linearGradient id="SVGID_00000063632674163960491430000017377161656967942826_" gradientUnits="userSpaceOnUse" x1="1758.6068" y1="378.2479" x2="1870.2502" y2="2469.0112">
				<stop  offset="0" style="stop-color:#09005D"/>
				<stop  offset="1" style="stop-color:#1A0F91"/>
			</linearGradient>
			<path style="fill:url(#SVGID_00000063632674163960491430000017377161656967942826_);" d="M568.732,1281.68v1343.846
				c0,110.549,88.094,200.952,198.607,203.802c490.838,12.657,1755.051,43.347,2222.296,36.459
				c80.307-1.184,145.363-65.448,147.68-145.731c9.01-312.194,23.642-1062.915-30.509-1411.445
				c-11.404-73.397-73.357-128.281-147.597-130.656c-411.26-13.156-1778.589-54.933-2245.615-44.444
				C633.048,1135.319,568.732,1201.114,568.732,1281.68z"/>
			<path style="fill:#91B3FA;" d="M653.055,1275.138v1276.746c0,64.545,51.812,117.137,116.349,118.102l2153.011,32.19
				c63.984,0.957,116.432-50.521,116.671-114.512l4.358-1265.339c0.171-45.755-36.282-83.245-82.024-84.358l-2215.06-53.892
				C695.2,1182.831,653.055,1223.963,653.055,1275.138z"/>
			<path style="fill:#91B3FA;" d="M3058.7,2754.219c-0.023,0-0.046,0-0.068,0l-2405.644-48.699c-1.84-0.039-3.301-1.558-3.265-3.4
				c0.038-1.838,1.625-3.335,3.398-3.263l2405.644,48.699c1.84,0.039,3.301,1.558,3.265,3.4
				C3061.993,2752.772,3060.509,2754.219,3058.7,2754.219z"/>
			<path style="fill:#91B3FA;" d="M1865.185,3138.207c-1.817,0-3.302-1.461-3.33-3.283c-0.026-1.842,1.443-3.354,3.283-3.38
				l45.892-0.67c0.016,0,0.033,0,0.051,0c1.817,0,3.302,1.461,3.33,3.283c0.026,1.841-1.443,3.354-3.283,3.38l-45.893,0.67
				C1865.219,3138.207,1865.203,3138.207,1865.185,3138.207z"/>
			<path style="fill:#91B3FA;" d="M1261.276,3222.886c-0.176,0-0.353-0.013-0.53-0.042c-1.817-0.29-3.055-1.998-2.764-3.813
				l6.548-41.004c3.495-21.896,22.123-38.024,44.294-38.349l486.758-7.119c1.731,0.075,3.353,1.441,3.38,3.283
				c0.026,1.838-1.443,3.354-3.282,3.381l-486.758,7.118c-18.926,0.277-34.827,14.042-37.813,32.734l-6.548,41.004
				C1264.299,3221.718,1262.884,3222.886,1261.276,3222.886z"/>
		</g>
		<g>
			<g style="opacity:0.49;">
				<path style="opacity:0.5;fill:#FFFFFF;" d="M1057.281,1882.135H769.49c-39.32,0-70.644,27.744-68.721,60.867l32.75,564.112
					c1.795,30.908,32.031,55.191,68.721,55.191h255.043c37.998,0,68.802-25.981,68.802-58.029v-564.112
					C1126.084,1908.116,1095.28,1882.135,1057.281,1882.135z"/>
				<path style="opacity:0.5;fill:#FFFFFF;" d="M1669.087,1882.135h-426.776c-34.478,0-62.428,25.981-62.428,58.029v564.112
					c0,32.048,27.951,58.029,62.428,58.029h426.776c34.478,0,62.428-25.981,62.428-58.029v-564.112
					C1731.515,1908.116,1703.565,1882.135,1669.087,1882.135z"/>
				<g>
					<path style="fill:#FFFFFF;" d="M996.004,1310.391v273.395l-279.529,9.779c11.453,133.731,123.613,238.707,260.31,238.707
						c144.309,0,261.293-116.985,261.293-261.293C1238.078,1433.135,1131.337,1320.231,996.004,1310.391z"/>
				</g>
				<path style="fill:#FFFFFF;" d="M1725.935,1499.993h-422.181c-3.453,0-6.278-2.825-6.278-6.278v-29.926
					c0-3.453,2.825-6.278,6.278-6.278h422.181c3.453,0,6.278,2.825,6.278,6.278v29.926
					C1732.213,1497.168,1729.388,1499.993,1725.935,1499.993z"/>
				<path style="fill:#FFFFFF;" d="M1725.935,1402.161h-422.181c-3.453,0-6.278-2.825-6.278-6.278v-29.926
					c0-3.453,2.825-6.278,6.278-6.278h422.181c3.453,0,6.278,2.825,6.278,6.278v29.926
					C1732.213,1399.336,1729.388,1402.161,1725.935,1402.161z"/>
				<path style="fill:#FFFFFF;" d="M1725.935,1593.698h-422.181c-3.453,0-6.278-2.825-6.278-6.278v-29.926
					c0-3.453,2.825-6.278,6.278-6.278h422.181c3.453,0,6.278,2.825,6.278,6.278v29.926
					C1732.213,1590.873,1729.388,1593.698,1725.935,1593.698z"/>
				<path style="fill:#FFFFFF;" d="M1725.935,1698.516h-422.181c-3.453,0-6.278-2.825-6.278-6.278v-29.926
					c0-3.453,2.825-6.278,6.278-6.278h422.181c3.453,0,6.278,2.825,6.278,6.278v29.926
					C1732.213,1695.69,1729.388,1698.516,1725.935,1698.516z"/>
				<path style="fill:#FFFFFF;" d="M1725.935,1794.481h-422.181c-3.453,0-6.278-2.825-6.278-6.278v-29.926
					c0-3.453,2.825-6.278,6.278-6.278h422.181c3.453,0,6.278,2.825,6.278,6.278v29.926
					C1732.213,1791.656,1729.388,1794.481,1725.935,1794.481z"/>
			</g>
			<g>
				<g style="opacity:0.64;">
					<path style="opacity:0.5;fill:#FFFFFF;" d="M2120.232,2270.104H1864.77c-16.035,0-29.033,12.083-29.033,26.988
						c0,14.905,12.999,26.987,29.033,26.987h255.461c16.034,0,29.034-12.082,29.034-26.987
						C2149.265,2282.187,2136.266,2270.104,2120.232,2270.104z"/>
					<path style="opacity:0.5;fill:#FFFFFF;" d="M2509.836,2270.104h-255.461c-16.035,0-29.033,12.083-29.033,26.988
						c0,14.905,12.999,26.987,29.033,26.987h255.461c16.035,0,29.033-12.082,29.033-26.987
						C2538.869,2282.187,2525.871,2270.104,2509.836,2270.104z"/>
					<path style="opacity:0.5;fill:#FFFFFF;" d="M2643.979,2324.079h255.461c16.034,0,29.032-12.082,29.032-26.987
						c0-14.905-12.999-26.988-29.032-26.988h-255.461c-16.035,0-29.034,12.083-29.034,26.988
						C2614.946,2311.996,2627.945,2324.079,2643.979,2324.079z"/>
					<path style="opacity:0.5;fill:#FFFFFF;" d="M2120.232,2354.065H1864.77c-16.035,0-29.033,12.083-29.033,26.987v158.926
						c0,14.905,12.999,26.987,29.033,26.987h255.461c16.034,0,29.034-12.082,29.034-26.987v-158.926
						C2149.265,2366.148,2136.266,2354.065,2120.232,2354.065z"/>
					<path style="opacity:0.5;fill:#FFFFFF;" d="M2509.836,2354.065h-255.461c-16.035,0-29.033,12.083-29.033,26.987v158.926
						c0,14.905,12.999,26.987,29.033,26.987h255.461c16.035,0,29.033-12.082,29.033-26.987v-158.926
						C2538.869,2366.148,2525.871,2354.065,2509.836,2354.065z"/>
					<path style="opacity:0.5;fill:#FFFFFF;" d="M2899.44,2354.065h-255.461c-16.035,0-29.034,12.083-29.034,26.987v158.926
						c0,14.905,12.999,26.987,29.034,26.987h255.461c16.034,0,29.032-12.082,29.032-26.987v-158.926
						C2928.473,2366.148,2915.474,2354.065,2899.44,2354.065z"/>
				</g>
			</g>
			
				<linearGradient id="SVGID_00000099636159098859701210000012124278331053742727_" gradientUnits="userSpaceOnUse" x1="1555.5093" y1="1659.9729" x2="1433.7173" y2="2487.1436">
				<stop  offset="0" style="stop-color:#FF928E"/>
				<stop  offset="1" style="stop-color:#FE7062"/>
			</linearGradient>
			<path style="fill:url(#SVGID_00000099636159098859701210000012124278331053742727_);" d="M1229.611,2245.269v214.158
				c0,33.485,29.203,60.629,65.226,60.629h315.55c36.997,0,66.988-27.878,66.988-62.268v-322.449
				c0-27.136-36.039-39.936-55.505-19.712l-60.978,63.349c-23.472,24.385-63.204,27.814-91.105,7.863l-5.838-4.175
				c-21.519-15.387-51.68-14.701-72.363,1.646l-33.395,26.395c-25.71,20.321-61.634,25.236-92.552,12.662l0,0
				C1248.646,2216.457,1229.611,2228.029,1229.611,2245.269z"/>
			<path style="fill:#7D97F4;" d="M976.388,1567.068v-254.292c-141.166,2.847-254.964,117.117-257.066,258.465L976.388,1567.068z"/>
		</g>
		<g>
			
				<linearGradient id="SVGID_00000176745614357204381680000004170305613713629108_" gradientUnits="userSpaceOnUse" x1="2407.269" y1="1184.1055" x2="2376.8213" y2="2183.8145">
				<stop  offset="0" style="stop-color:#FF928E"/>
				<stop  offset="1" style="stop-color:#FE7062"/>
			</linearGradient>
			<path style="fill:url(#SVGID_00000176745614357204381680000004170305613713629108_);" d="M2973.681,1672.246l-1173.264-5.641
				c-14.141-0.129-25.624,15.512-25.516,34.754l2.599,464.199c0.108,19.352,11.893,34.795,26.108,34.214l1166.577-24.984
				c13.57-0.555,24.409-15.561,24.583-34.034l4.088-433.574C2999.036,1688.05,2987.74,1672.375,2973.681,1672.246z"/>
			<path style="opacity:0.5;fill:#FFFFFF;" d="M1802.864,2170c-2.171,0-3.857-2.053-3.873-4.673l-2.598-464.193
				c-0.006-1.219,0.32-2.288,0.971-3.181c0.943-1.289,2.096-1.56,2.898-1.56l1173.272,5.643c0.799,0.006,1.938,0.288,2.873,1.58
				c0.646,0.899,0.969,1.965,0.959,3.175l-4.089,433.572c-0.023,2.567-1.625,4.564-3.723,4.65h-0.028L1802.864,2170z
				 M1800.254,1699.401c-0.073,0-0.222,0-0.46,0.326c-0.267,0.367-0.397,0.822-0.394,1.389l2.598,464.193
				c0.006,1.028,0.551,1.683,0.833,1.683l1166.629-24.988c0.308-0.023,0.799-0.693,0.808-1.671l4.089-433.569
				c0.004-0.564-0.124-1.016-0.391-1.389c-0.238-0.329-0.389-0.332-0.454-0.332L1800.254,1699.401z"/>
			<g style="opacity:0.6;">
				<rect x="1847.99" y="1912.115" style="fill:#FFFFFF;" width="57.097" height="218.191"/>
				<rect x="1943.393" y="1987.104" style="fill:#FFFFFF;" width="57.097" height="143.202"/>
				<rect x="2038.797" y="1801.775" style="fill:#FFFFFF;" width="57.097" height="328.531"/>
				<rect x="2134.201" y="2051.38" style="fill:#FFFFFF;" width="57.097" height="78.926"/>
				<rect x="2229.604" y="1845.697" style="fill:#FFFFFF;" width="57.097" height="284.609"/>
				<rect x="2325.008" y="1894.975" style="fill:#FFFFFF;" width="57.097" height="235.331"/>
				<rect x="2420.412" y="1948.538" style="fill:#FFFFFF;" width="57.097" height="181.768"/>
				<rect x="2515.816" y="1735.356" style="fill:#FFFFFF;" width="57.097" height="394.95"/>
				<rect x="2611.219" y="1777.135" style="fill:#FFFFFF;" width="57.097" height="353.171"/>
				<rect x="2706.623" y="1840.34" style="fill:#FFFFFF;" width="57.097" height="289.966"/>
				<rect x="2802.027" y="2058.705" style="fill:#FFFFFF;" width="57.097" height="71.601"/>
				<rect x="2897.431" y="1919.614" style="fill:#FFFFFF;" width="57.097" height="210.692"/>
			</g>
		</g>
		<g>
			
				<linearGradient id="SVGID_00000019650853257023324510000013033585997370401443_" gradientUnits="userSpaceOnUse" x1="2482.0144" y1="735.2614" x2="2309.4771" y2="1750.1926">
				<stop  offset="0" style="stop-color:#FF928E"/>
				<stop  offset="1" style="stop-color:#FE7062"/>
			</linearGradient>
			<path style="fill:url(#SVGID_00000019650853257023324510000013033585997370401443_);" d="M2936.106,1083.451l-1101.733-5.297
				c-13.278-0.121-24.062,14.566-23.961,32.635l2.441,435.898c0.102,18.172,11.168,32.673,24.516,32.127l1095.454-23.461
				c12.743-0.521,22.921-14.612,23.085-31.959l3.839-407.14C2959.915,1098.29,2949.308,1083.571,2936.106,1083.451z"/>
			<path style="opacity:0.5;fill:#FFFFFF;" d="M1836.671,1550.858c-2.038,0-3.621-1.928-3.637-4.388l-2.44-435.893
				c-0.006-1.142,0.301-2.146,0.91-2.987c0.89-1.211,1.971-1.465,2.722-1.465l1101.741,5.299c0.75,0.005,1.821,0.27,2.698,1.484
				c0.607,0.844,0.91,1.845,0.901,2.982l-3.839,407.138c-0.022,2.411-1.525,4.286-3.496,4.366h-0.026L1836.671,1550.858z
				 M1834.22,1108.95c-0.069,0-0.21,0-0.433,0.306c-0.25,0.342-0.371,0.772-0.368,1.305l2.44,435.893
				c0.005,0.965,0.517,1.58,0.782,1.58l1095.503-23.464c0.285-0.019,0.75-0.648,0.759-1.569l3.839-407.135
				c0.004-0.53-0.116-0.954-0.367-1.305c-0.223-0.309-0.365-0.312-0.426-0.312L1834.22,1108.95z"/>
			<g>
				
					<ellipse transform="matrix(0.7071 -0.7071 0.7071 0.7071 -304.6094 1807.6381)" style="fill:#FFFFFF;" cx="2029.708" cy="1271.515" rx="114.065" ry="114.065"/>
				
					<ellipse transform="matrix(0.7071 -0.7071 0.7071 0.7071 -221.8651 2007.4005)" style="fill:#FFFFFF;" cx="2312.214" cy="1271.515" rx="114.065" ry="114.065"/>
				
					<ellipse transform="matrix(0.7071 -0.7071 0.7071 0.7071 -141.4741 2208.9487)" style="fill:#FFFFFF;" cx="2595.7" cy="1275.249" rx="114.065" ry="114.065"/>
				<g>
					
						<linearGradient id="SVGID_00000050637155563957678960000006560279154914357179_" gradientUnits="userSpaceOnUse" x1="2021.3143" y1="444.2828" x2="2026.3888" y2="946.6744">
						<stop  offset="0" style="stop-color:#FF928E"/>
						<stop  offset="1" style="stop-color:#FE7062"/>
					</linearGradient>
					<path style="fill:url(#SVGID_00000050637155563957678960000006560279154914357179_);" d="M2097.485,1247.408
						c3.53,8.585,5.49,17.982,5.49,27.841c0,40.465-32.803,73.267-73.267,73.267c-40.465,0-73.267-32.803-73.267-73.267
						c0-40.464,32.803-73.267,73.267-73.267c1.239,0,2.471,0.033,3.696,0.094v-18.573c-1.226-0.048-2.457-0.08-3.696-0.08
						c-50.715,0-91.827,41.112-91.827,91.827c0,50.714,41.112,91.827,91.827,91.827c50.714,0,91.827-41.112,91.827-91.827
						c0-12.487-2.497-24.39-7.012-35.243L2097.485,1247.408z"/>
					
						<linearGradient id="SVGID_00000129204602935437952330000014496759461179257515_" gradientUnits="userSpaceOnUse" x1="2281.3425" y1="441.6568" x2="2286.417" y2="944.0483">
						<stop  offset="0" style="stop-color:#FF928E"/>
						<stop  offset="1" style="stop-color:#FE7062"/>
					</linearGradient>
					<path style="fill:url(#SVGID_00000129204602935437952330000014496759461179257515_);" d="M2350.988,1337.238
						c-11.304,7.134-24.684,11.278-39.039,11.278c-40.465,0-73.267-32.803-73.267-73.267c0-40.464,32.803-73.267,73.267-73.267
						c1.24,0,2.471,0.033,3.696,0.094v-18.573c-1.226-0.048-2.457-0.08-3.696-0.08c-50.715,0-91.826,41.112-91.826,91.827
						c0,50.714,41.112,91.827,91.826,91.827c17.699,0,34.226-5.013,48.247-13.688L2350.988,1337.238z"/>
					
						<linearGradient id="SVGID_00000124876844878081776620000017182123547854985889_" gradientUnits="userSpaceOnUse" x1="2580.4146" y1="438.6358" x2="2585.489" y2="941.0273">
						<stop  offset="0" style="stop-color:#FF928E"/>
						<stop  offset="1" style="stop-color:#FE7062"/>
					</linearGradient>
					<path style="fill:url(#SVGID_00000124876844878081776620000017182123547854985889_);" d="M2657.82,1316.442
						c-13.187,19.359-35.402,32.074-60.591,32.074c-40.465,0-73.268-32.803-73.268-73.267c0-40.464,32.803-73.267,73.268-73.267
						c1.24,0,2.471,0.033,3.696,0.094v-18.573c-1.227-0.048-2.457-0.08-3.696-0.08c-50.715,0-91.827,41.112-91.827,91.827
						c0,50.714,41.112,91.827,91.827,91.827c31.373,0,59.067-15.737,75.631-39.745L2657.82,1316.442z"/>
				</g>
				<g>
					<path style="opacity:0.5;fill:#FFFFFF;" d="M2123.461,1433.898h-185.88c-11.668,0-21.126,9.458-21.126,21.126
						c0,11.667,9.458,21.125,21.126,21.125h185.88c11.667,0,21.126-9.458,21.126-21.125
						C2144.587,1443.356,2135.128,1433.898,2123.461,1433.898z"/>
					<path style="opacity:0.5;fill:#FFFFFF;" d="M2406.947,1433.898h-185.88c-11.667,0-21.125,9.458-21.125,21.126
						c0,11.667,9.458,21.125,21.125,21.125h185.88c11.667,0,21.125-9.458,21.125-21.125
						C2428.073,1443.356,2418.614,1433.898,2406.947,1433.898z"/>
					<path style="opacity:0.5;fill:#FFFFFF;" d="M2502.76,1476.149h185.88c11.667,0,21.125-9.458,21.125-21.125
						c0-11.667-9.458-21.126-21.125-21.126h-185.88c-11.667,0-21.125,9.458-21.125,21.126
						C2481.635,1466.691,2491.093,1476.149,2502.76,1476.149z"/>
				</g>
			</g>
		</g>
		<g>
			
				<linearGradient id="SVGID_00000108268170217678429520000017257698664107080621_" gradientUnits="userSpaceOnUse" x1="-215.1337" y1="2259.5671" x2="-391.6895" y2="2259.5671" gradientTransform="matrix(-1 0 0 1 710.5777 0)">
				<stop  offset="0" style="stop-color:#FEBBBA"/>
				<stop  offset="1" style="stop-color:#FF928E"/>
			</linearGradient>
			<path style="fill:url(#SVGID_00000108268170217678429520000017257698664107080621_);" d="M1102.267,2223.399
				c0,0-65.578,151.334-105.933,131.156c-40.355-20.178-70.622-186.645-70.622-186.645S1051.823,2137.643,1102.267,2223.399z"/>
			
				<linearGradient id="SVGID_00000094588232949826782480000014889404927963941775_" gradientUnits="userSpaceOnUse" x1="2623.6545" y1="2892.5857" x2="2627.4297" y2="3307.8081" gradientTransform="matrix(1 0 0 1 -1667.7205 0)">
				<stop  offset="0" style="stop-color:#4F52FF"/>
				<stop  offset="1" style="stop-color:#4042E2"/>
			</linearGradient>
			<path style="fill:url(#SVGID_00000094588232949826782480000014889404927963941775_);" d="M873.941,3162.506
				c0,0-5.482,31.036-8.169,61.758c-1.051,12.007,8.206,22.432,20.248,22.934c40.913,1.704,128.427,5.017,159.83,3.616
				c4.721-0.211,7.807-5.044,6.061-9.435l0,0c-1.464-3.679-4.289-6.654-7.885-8.308l-144.558-66.438L873.941,3162.506z"/>
			
				<linearGradient id="SVGID_00000139981844679475855520000004487286727169154955_" gradientUnits="userSpaceOnUse" x1="2537.1711" y1="3162.3784" x2="2584.1919" y2="3162.3784" gradientTransform="matrix(1 0 0 1 -1667.7205 0)">
				<stop  offset="0" style="stop-color:#FEBBBA"/>
				<stop  offset="1" style="stop-color:#FF928E"/>
			</linearGradient>
			<path style="fill:url(#SVGID_00000139981844679475855520000004487286727169154955_);" d="M869.451,3144.271l4.404,37.123
				c0,0,25.323,11.788,42.616-1.486l-10.487-41.37L869.451,3144.271z"/>
			
				<linearGradient id="SVGID_00000046334706805551548940000005999226168830900403_" gradientUnits="userSpaceOnUse" x1="-2.5241" y1="-381.7091" x2="827.4517" y2="659.9957" gradientTransform="matrix(1 0 0 1 -1667.7205 0)">
				<stop  offset="0" style="stop-color:#4F52FF"/>
				<stop  offset="1" style="stop-color:#4042E2"/>
			</linearGradient>
			<path style="fill:url(#SVGID_00000046334706805551548940000005999226168830900403_);" d="M872.761,2446.35
				c-1.902,9.694-10.212,483.774,40.464,696.226c0.826,3.466-0.931,7.039-4.23,8.388c-7.772,3.175-23.009,7.774-41.271,8.387
				c-5.655,0.19-10.726-3.485-12.321-8.914c-14.486-49.292-83.897-296.258-92.952-532.178c-10.118-263.618,0-8.976,0-8.976
				l5.933-162.952L872.761,2446.35z"/>
			
				<linearGradient id="SVGID_00000163778708523441266240000016876228987384860835_" gradientUnits="userSpaceOnUse" x1="2392.5115" y1="2894.6882" x2="2396.2866" y2="3309.9097" gradientTransform="matrix(1 0 0 1 -1667.7205 0)">
				<stop  offset="0" style="stop-color:#4F52FF"/>
				<stop  offset="1" style="stop-color:#4042E2"/>
			</linearGradient>
			<path style="fill:url(#SVGID_00000163778708523441266240000016876228987384860835_);" d="M707.653,3178.698
				c0,0-8.727,15.668-17.175,57.301c-1.525,7.519,3.728,14.716,11.363,15.466c13.51,1.329,34.306,3.037,50.966,2.922
				c7.679-0.052,13.672-6.74,12.747-14.363c-1.845-15.196-7.594-40.129-25.353-59.563L707.653,3178.698z"/>
			
				<linearGradient id="SVGID_00000152257178130092428120000005753680844799139716_" gradientUnits="userSpaceOnUse" x1="2367.709" y1="3159.9673" x2="2408.3066" y2="3159.9673" gradientTransform="matrix(1 0 0 1 -1667.7205 0)">
				<stop  offset="0" style="stop-color:#FEBBBA"/>
				<stop  offset="1" style="stop-color:#FF928E"/>
			</linearGradient>
			<path style="fill:url(#SVGID_00000152257178130092428120000005753680844799139716_);" d="M699.989,3130.949l10.292,56.139
				c0,0,10.176,7.57,30.306,2.082l-4.912-60.402L699.989,3130.949z"/>
			
				<linearGradient id="SVGID_00000063595551877366319360000005294447001964710578_" gradientUnits="userSpaceOnUse" x1="-46.718" y1="-346.4981" x2="783.2587" y2="695.2079" gradientTransform="matrix(1 0 0 1 -1667.7205 0)">
				<stop  offset="0" style="stop-color:#4F52FF"/>
				<stop  offset="1" style="stop-color:#4042E2"/>
			</linearGradient>
			<path style="fill:url(#SVGID_00000063595551877366319360000005294447001964710578_);" d="M672.186,2460.897
				c-41.446,250.128,8.99,618.214,26.001,690.257c1.041,4.41,4.601,7.79,9.072,8.531c7.592,1.259,20.092,2.286,32.417-1.293
				c4.246-1.233,7.23-5.063,7.403-9.482c2.282-58.245-1.825-415.811,36.792-557.122c1.958-7.161,6.331-13.407,12.381-17.708
				l74.956-53.287l5.746-86.133L672.186,2460.897z"/>
			<g>
				
					<linearGradient id="SVGID_00000061431236431442786680000015470403091136147078_" gradientUnits="userSpaceOnUse" x1="6225.9795" y1="-5714.8853" x2="5891.0532" y2="-5293.6899" gradientTransform="matrix(-1 0 0 1 710.5777 0)">
					<stop  offset="0" style="stop-color:#FF928E"/>
					<stop  offset="1" style="stop-color:#FE7062"/>
				</linearGradient>
				<path style="fill:url(#SVGID_00000061431236431442786680000015470403091136147078_);" d="M940.845,1996.399
					c-151.333-15.134-265.817,23.166-265.817,23.166c-37.024,216.028-6.474,465.202-6.474,465.202
					c96.157,25.217,204.627-15.418,204.627-15.418c15.981-90.294,90.548-344.413,90.548-344.413
					C1024.416,2117.403,978.969,2000.211,940.845,1996.399z"/>
			</g>
			
				<linearGradient id="SVGID_00000157270167283948300860000002437047617666771094_" gradientUnits="userSpaceOnUse" x1="6286.3237" y1="-5666.939" x2="5951.397" y2="-5245.7427" gradientTransform="matrix(-1 0 0 1 710.5777 0)">
				<stop  offset="0" style="stop-color:#FF928E"/>
				<stop  offset="1" style="stop-color:#FE7062"/>
			</linearGradient>
			<path style="fill:url(#SVGID_00000157270167283948300860000002437047617666771094_);" d="M722.668,2139.831l-47.64-120.267
				c0,0-116.015,78.827-135.094,178.771c21.921,1.615,61.809,7.316,100.854,27.03
				C649.367,2178.174,722.668,2139.831,722.668,2139.831z"/>
			
				<linearGradient id="SVGID_00000132080234462141836900000011680248189792635526_" gradientUnits="userSpaceOnUse" x1="2215.0986" y1="2275.9336" x2="2519.0986" y2="2275.9336" gradientTransform="matrix(1 0 0 1 -1667.7205 0)">
				<stop  offset="0" style="stop-color:#FEBBBA"/>
				<stop  offset="1" style="stop-color:#FF928E"/>
			</linearGradient>
			<path style="fill:url(#SVGID_00000132080234462141836900000011680248189792635526_);" d="M834.141,2253
				c0,0-130.256,73.614-174.206,10.756c-9.125-13.052-11.306-26.023-9.058-38.39c-39.045-19.714-78.933-25.416-100.854-27.03
				c-5.753,30.13-2.711,62.176,14.994,94.563c76.986,140.829,286.362-7.783,286.362-7.783L834.141,2253z"/>
			<g>
				
					<linearGradient id="SVGID_00000060724939774305223630000009125743112439093648_" gradientUnits="userSpaceOnUse" x1="-167.6393" y1="1975.6179" x2="-300.7296" y2="2287.8689" gradientTransform="matrix(-1 0 0 1 710.5777 0)">
					<stop  offset="0" style="stop-color:#09005D"/>
					<stop  offset="1" style="stop-color:#1A0F91"/>
				</linearGradient>
				<path style="fill:url(#SVGID_00000060724939774305223630000009125743112439093648_);" d="M818.49,2346.128l71.089-248.257
					c0.807-2.818,3.211-4.874,6.123-5.213c12.88-1.503,50.201-5.722,93.292-9.366c51.906-4.39,112.182-7.948,148.202-4.922
					c5.12,0.43,8.215,5.846,5.937,10.453c-20.483,41.439-104.736,210.005-146.928,265.225c-1.398,1.83-3.56,2.899-5.861,2.877
					l-164.937-1.535C820.607,2355.347,817.169,2350.743,818.49,2346.128z"/>
				
					<linearGradient id="SVGID_00000119827448094950934660000017859225703342824382_" gradientUnits="userSpaceOnUse" x1="2715.7275" y1="1950.0115" x2="2680.127" y2="2106.3442" gradientTransform="matrix(1 0 0 1 -1667.7205 0)">
					<stop  offset="0" style="stop-color:#09005D"/>
					<stop  offset="1" style="stop-color:#1A0F91"/>
				</linearGradient>
				<path style="fill:url(#SVGID_00000119827448094950934660000017859225703342824382_);" d="M996.368,2061.769l51.541-8.587
					c2.745-0.457,4.993,2.165,4.121,4.808l-5.103,15.461c-0.444,1.346-1.617,2.32-3.023,2.508l-49.597,6.625
					c-2.566,0.342-4.681-1.989-4.091-4.51l3.158-13.498C993.714,2063.122,994.894,2062.015,996.368,2061.769z"/>
				
					<linearGradient id="SVGID_00000167371479843928774410000008373254741324773784_" gradientUnits="userSpaceOnUse" x1="2697.0959" y1="2015.5891" x2="2680.0698" y2="2117.7461" gradientTransform="matrix(1 0 0 1 -1667.7205 0)">
					<stop  offset="0" style="stop-color:#09005D"/>
					<stop  offset="1" style="stop-color:#1A0F91"/>
				</linearGradient>
				<path style="fill:url(#SVGID_00000167371479843928774410000008373254741324773784_);" d="M957.776,2105.404l4.246-22.117
					c0.426-2.218,2.258-3.894,4.505-4.122l104.099-10.563c3.504-0.355,6.31,2.856,5.488,6.28l-6.619,27.559
					c-0.53,2.205-2.449,3.797-4.714,3.911l-101.726,5.121C959.742,2111.639,957.15,2108.658,957.776,2105.404z"/>
				
					<linearGradient id="SVGID_00000149351532351558186830000005597660318858213505_" gradientUnits="userSpaceOnUse" x1="2496.5278" y1="2244.0593" x2="2591.2368" y2="2244.0593" gradientTransform="matrix(1 0 0 1 -1667.7205 0)">
					<stop  offset="0" style="stop-color:#FEBBBA"/>
					<stop  offset="1" style="stop-color:#FF928E"/>
				</linearGradient>
				<path style="fill:url(#SVGID_00000149351532351558186830000005597660318858213505_);" d="M835.665,2286.149
					c0,0-9.902-40.719-5.908-55.166c3.994-14.446,11.734-33.021,37.532-28.893c25.797,4.128,56.228,14.995,56.228,14.995
					s-1.537,18.817-21.144,12.746l12.159,9.408c0,0-1.739,15.067-18.3,7.017l11.308,12.476c0,0-7.112,12.375-19.296,4.438
					C876.06,2255.233,870.218,2291.053,835.665,2286.149z"/>
				
					<linearGradient id="SVGID_00000181795178076290751750000008379208095760976548_" gradientUnits="userSpaceOnUse" x1="-507.9801" y1="1269.5991" x2="-413.2669" y2="1269.5991" gradientTransform="matrix(-0.8472 -0.5312 -0.5312 0.8472 1372.1997 848.1048)">
					<stop  offset="0" style="stop-color:#FEBBBA"/>
					<stop  offset="1" style="stop-color:#FF928E"/>
				</linearGradient>
				<path style="fill:url(#SVGID_00000181795178076290751750000008379208095760976548_);" d="M1099.98,2225.565
					c0,0,30.02-29.239,34.311-43.599c4.29-14.362,7.599-34.21-16.45-44.418c-24.048-10.206-55.604-17.165-55.604-17.165
					s-8.693,16.759,11.143,22.031l-15.299,1.512c0,0-6.53,13.689,11.776,15.667l-16.208,4.563c0,0-0.549,14.263,13.991,14.011
					C1082.18,2177.914,1068.1,2211.365,1099.98,2225.565z"/>
			</g>
			
				<linearGradient id="SVGID_00000105399202912923539930000002441775689987202717_" gradientUnits="userSpaceOnUse" x1="2453.5728" y1="1960.3317" x2="2573.7651" y2="1960.3317" gradientTransform="matrix(1 0 0 1 -1667.7205 0)">
				<stop  offset="0" style="stop-color:#FEBBBA"/>
				<stop  offset="1" style="stop-color:#FF928E"/>
			</linearGradient>
			<path style="fill:url(#SVGID_00000105399202912923539930000002441775689987202717_);" d="M825.603,1895.51l-39.521,114.29
				c-0.655,1.893,0.124,3.99,1.877,4.959c10.773,5.956,49.586,23.173,96.357-6.482c4.873-3.088,8.189-8.127,8.93-13.849
				l12.798-98.918H825.603z"/>
			<g>
				
					<linearGradient id="SVGID_00000145037829244823798350000002741400251638892686_" gradientUnits="userSpaceOnUse" x1="-3672.417" y1="323.8307" x2="-3717.3313" y2="175.693" gradientTransform="matrix(0.746 -0.6659 0.6659 0.746 3458.615 -803.1727)">
					<stop  offset="0" style="stop-color:#FEBBBA"/>
					<stop  offset="1" style="stop-color:#FF928E"/>
				</linearGradient>
				<path style="fill:url(#SVGID_00000145037829244823798350000002741400251638892686_);" d="M911.594,1789.674
					c0,0,43.396,81.691,37.834,114.69c-5.562,32.999-59.347,30.63-106.313,3.829l-32.818-88.208L911.594,1789.674z"/>
				
					<linearGradient id="SVGID_00000007387796287999822790000010824512452453819308_" gradientUnits="userSpaceOnUse" x1="-3712.939" y1="65.7221" x2="-3675.3684" y2="280.0135" gradientTransform="matrix(0.746 -0.6659 0.6659 0.746 3458.615 -803.1727)">
					<stop  offset="0" style="stop-color:#09005D"/>
					<stop  offset="1" style="stop-color:#1A0F91"/>
				</linearGradient>
				<path style="fill:url(#SVGID_00000007387796287999822790000010824512452453819308_);" d="M845.191,1864.874
					c1.909-0.846,2.613-3.182,1.47-4.928c-3.477-5.311-9.994-16.147-12.074-25.635c0,0-7.802-4.997,19.857-11.616
					c27.658-6.62,68.903-16.896,77.572-40.437c8.453-22.953-13.755-80.676-49.187-34.684c-1.348,1.75-3.989,1.789-5.335,0.037
					c-5.809-7.56-21.079-23.251-42.28-13.738c-19.841,8.902-22.074,23.441-21.802,30.768c0.079,2.155-1.847,3.831-3.967,3.427
					c-10.031-1.913-34.102-3.557-45.337,21.137c-9.255,20.339-3.24,31.854,2.238,37.484c1.775,1.824,0.998,4.829-1.436,5.574
					c-6.592,2.018-15.106,7.608-14.253,23.053c1.178,21.353,25.051,19.472,31.848,18.498c1.115-0.159,2.236,0.223,2.99,1.057
					c5.828,6.45,32.086,33.834,60.506,37.135c2.461,0.286,4.367-2.145,3.562-4.486l-12.3-35.752c-0.57-1.66,0.224-3.482,1.83-4.193
					L845.191,1864.874z"/>
				
					<linearGradient id="SVGID_00000177443347944294408920000003240655225859092365_" gradientUnits="userSpaceOnUse" x1="-3718.3311" y1="323.1403" x2="-3758.7407" y2="189.8598" gradientTransform="matrix(0.746 -0.6659 0.6659 0.746 3458.615 -803.1727)">
					<stop  offset="0" style="stop-color:#FEBBBA"/>
					<stop  offset="1" style="stop-color:#FF928E"/>
				</linearGradient>
				<path style="fill:url(#SVGID_00000177443347944294408920000003240655225859092365_);" d="M850.134,1869.949
					c0,0-30.899-21.201-33.156-3.348c-2.258,17.854,27.824,25.859,42.724,19.204L850.134,1869.949z"/>
			</g>
		</g>
		<g>
			<g>
				
					<linearGradient id="SVGID_00000140721414660186679170000010372572321142588308_" gradientUnits="userSpaceOnUse" x1="3307.1956" y1="2057.7185" x2="2446.0667" y2="3421.6545">
					<stop  offset="0" style="stop-color:#4F52FF"/>
					<stop  offset="1" style="stop-color:#4042E2"/>
				</linearGradient>
				<path style="fill:url(#SVGID_00000140721414660186679170000010372572321142588308_);" d="M3115.503,2813.199
					c10.184-91.729-27.148-195.074-47.553-290.828c-10.788-50.627-16.861-101.056-10.732-152.742
					c6.094-51.39,27.872-107.578,3.71-157.565c-48.685-100.705-152.784-49.814-210.39,29.777
					c-66.85,92.362-80.24,239.445-102.478,353.182c-13.406,68.566-34.909,139.206-40.642,208.758
					c-9.497,115.221,19.618,193.783,76.62,245.342c54.673,49.453,135.222,56.932,198.139,18.512
					C3039.014,3032.928,3099.073,2961.178,3115.503,2813.199z"/>
				
					<linearGradient id="SVGID_00000079477370390774890430000012934714918679307401_" gradientUnits="userSpaceOnUse" x1="3864.6602" y1="1702.045" x2="3428.24" y2="2179.0625">
					<stop  offset="0" style="stop-color:#09005D"/>
					<stop  offset="1" style="stop-color:#1A0F91"/>
				</linearGradient>
				<path style="fill:url(#SVGID_00000079477370390774890430000012934714918679307401_);" d="M2888.846,3244.763
					c-0.711-0.324-1.264-0.97-1.437-1.793c-9.956-47.448-30.541-177.725-37.175-331.171c-4.87-112.636-1.891-221.521,8.857-323.63
					c13.439-127.683,39.131-245.077,76.364-348.924c0.474-1.323,1.931-2.011,3.253-1.536c1.334,0.466,2.012,1.931,1.537,3.254
					c-37.089,103.448-62.688,220.425-76.086,347.68c-10.723,101.846-13.698,210.465-8.844,322.837
					c6.614,153.131,27.144,283.11,37.076,330.445c0.289,1.375-0.592,2.724-1.968,3.012
					C2889.871,3245.052,2889.323,3244.98,2888.846,3244.763z"/>
			</g>
		</g>
		<g>
			<g>
				<path style="fill:#91B3FA;" d="M3254.575,2955.76c6.806-61.304-18.144-130.372-31.781-194.366
					c-7.21-33.835-11.269-67.537-7.172-102.08c4.073-34.345,18.627-71.896,2.479-105.304
					c-32.537-67.303-102.108-33.292-140.608,19.901c-44.677,61.727-53.625,160.026-68.488,236.038
					c-8.959,45.824-23.331,93.034-27.162,139.517c-6.347,77.004,13.111,129.509,51.207,163.967
					c36.539,33.05,90.371,38.049,132.42,12.372C3203.456,3102.609,3243.595,3054.657,3254.575,2955.76z"/>
				
					<linearGradient id="SVGID_00000087398124320203585840000001429840691874916264_" gradientUnits="userSpaceOnUse" x1="3292.2261" y1="874.6729" x2="3311.4678" y2="2240.8845" gradientTransform="matrix(0.9819 0.1898 -0.1898 0.9819 375.6017 -414.7582)">
					<stop  offset="0" style="stop-color:#4F52FF"/>
					<stop  offset="1" style="stop-color:#4042E2"/>
				</linearGradient>
				<path style="fill:url(#SVGID_00000087398124320203585840000001429840691874916264_);" d="M3103.096,3244.182
					c-0.475-0.217-0.844-0.648-0.96-1.198c-6.654-31.71-20.411-118.777-24.845-221.328c-3.255-75.277-1.264-148.046,5.919-216.288
					c8.982-85.333,26.152-163.79,51.035-233.193c0.317-0.884,1.291-1.344,2.174-1.027c0.892,0.311,1.345,1.29,1.027,2.175
					c-24.787,69.136-41.896,147.314-50.85,232.361c-7.167,68.066-9.155,140.658-5.911,215.759
					c4.421,102.34,18.141,189.208,24.779,220.842c0.193,0.919-0.396,1.821-1.315,2.013
					C3103.781,3244.376,3103.415,3244.327,3103.096,3244.182z"/>
			</g>
		</g>
	</g>
</g>
</svg>
