<?xml version="1.0" encoding="utf-8"?>
<!-- Generator: Adobe Illustrator 27.5.0, SVG Export Plug-In . SVG Version: 6.00 Build 0)  -->
<svg version="1.1" id="Layer_1" xmlns="http://www.w3.org/2000/svg" xmlns:xlink="http://www.w3.org/1999/xlink" x="0px" y="0px"
	 viewBox="0 0 1200 1200" style="enable-background:new 0 0 1200 1200;" xml:space="preserve">
<rect x="1" y="2" style="fill:#FFFFFF;" width="1200" height="1200"/>
<g>
	
		<ellipse transform="matrix(0.7071 -0.7071 0.7071 0.7071 -249.6494 601.2934)" style="fill:#F76031;" cx="601.001" cy="602" rx="415.926" ry="415.927"/>
	<g>
		<g>
			<g>
				<g>
					<path style="fill:#B0B0B0;" d="M234.105,718.285c0,0-4.556,8.484,27.798,15.552h677.361c0,0,22.663-1.449,28.63-12.136
						l0.038-5.851L234.105,718.285z"/>
					<path style="fill:#FFFFFF;" d="M234.263,701.163h733.908v18.843c0,0,1.103,2.526-7.539,1.892h-719.46
						c0,0-6.759,1.896-7.387-2.516L234.263,701.163z"/>
					<path style="fill:#B0B0B0;" d="M934.083,712.176c0,0.728-0.485,1.314-1.091,1.314h-24.969c-0.604,0-1.088-0.587-1.088-1.314
						l0,0c0-0.741,0.484-1.338,1.088-1.338h24.969C933.598,710.838,934.083,711.435,934.083,712.176L934.083,712.176z"/>
				</g>
				<path style="fill:#B0B0B0;" d="M551.369,701.312c0,0-2.832,9.435,6.596,10.374h85.145c0,0,9.053,1.176,7.849-10.052
					L551.369,701.312z"/>
				<g>
					<linearGradient id="SVGID_1_" gradientUnits="userSpaceOnUse" x1="650.5112" y1="701.832" x2="650.5112" y2="701.6113">
						<stop  offset="0.0244" style="stop-color:#5F6767"/>
						<stop  offset="0.4756" style="stop-color:#676B6C"/>
						<stop  offset="0.5137" style="stop-color:#717576"/>
						<stop  offset="0.6192" style="stop-color:#878A8B"/>
						<stop  offset="0.7202" style="stop-color:#949899"/>
						<stop  offset="0.811" style="stop-color:#999C9D"/>
					</linearGradient>
					<path style="fill:url(#SVGID_1_);" d="M650.519,701.832v-0.221h-0.015C650.504,701.681,650.504,701.754,650.519,701.832z"/>
				</g>
			</g>
		</g>
		<path style="fill:#161D21;" d="M896.013,701.08V366.568c0-15.185-12.418-27.604-27.598-27.604H333.599
			c-15.181,0-27.602,12.42-27.602,27.604V701.08H896.013z"/>
		<rect x="324.971" y="359.674" style="fill:#FFFFFF;" width="552.06" height="320.874"/>
	</g>
	<g>
		<g>
			<rect x="778.5" y="770.818" style="fill:#3B3B3B;" width="142.01" height="11"/>
			<rect x="778.5" y="781.818" style="fill:#F9F9F9;" width="142.01" height="198.337"/>
			<g>
				<rect x="790.728" y="836.654" style="fill:#B0B0B0;" width="53.2" height="4.68"/>
				<rect x="790.728" y="855.804" style="fill:#B0B0B0;" width="117.554" height="4.677"/>
				<rect x="790.728" y="866.438" style="fill:#B0B0B0;" width="117.554" height="4.682"/>
				<rect x="790.728" y="877.077" style="fill:#B0B0B0;" width="117.554" height="4.68"/>
				<rect x="790.728" y="887.713" style="fill:#B0B0B0;" width="117.554" height="4.685"/>
			</g>
			<g>
				<rect x="790.728" y="898.367" style="fill:#B0B0B0;" width="117.554" height="4.678"/>
				<rect x="790.728" y="909.003" style="fill:#B0B0B0;" width="117.554" height="4.682"/>
				<rect x="790.728" y="919.643" style="fill:#B0B0B0;" width="117.554" height="4.679"/>
				<rect x="790.728" y="930.279" style="fill:#B0B0B0;" width="117.554" height="4.683"/>
			</g>
			<g>
				<rect x="790.728" y="940.864" style="fill:#B0B0B0;" width="117.554" height="4.68"/>
				<rect x="790.728" y="951.502" style="fill:#B0B0B0;" width="117.554" height="4.679"/>
				<rect x="790.728" y="962.139" style="fill:#B0B0B0;" width="117.554" height="4.682"/>
			</g>
		</g>
		<g>
			<path style="fill:#3B3B3B;" d="M818.427,798.113h4.457v2.05c-0.532,0.305-0.945,0.694-1.237,1.169
				c-0.486,0.77-0.815,1.678-0.982,2.729l-0.171,1.033c-0.057,0.327-0.179,0.585-0.364,0.771c-0.187,0.188-0.422,0.28-0.703,0.28
				c-0.295,0-0.533-0.102-0.721-0.304c-0.185-0.204-0.279-0.472-0.279-0.799V798.113z M831.779,798.113v19.909
				c0,0.442,0.086,0.758,0.253,0.951c0.092,0.112,0.177,0.183,0.255,0.209c0.08,0.032,0.339,0.101,0.781,0.214
				c0.542,0.125,0.812,0.434,0.812,0.933c0,0.294-0.146,0.53-0.44,0.711c-0.217,0.135-0.576,0.203-1.084,0.203h-0.56h-7.557h-0.56
				c-0.499,0-0.874-0.075-1.127-0.228c-0.255-0.153-0.383-0.382-0.383-0.687c0-0.499,0.272-0.808,0.814-0.933
				c0.44-0.113,0.701-0.182,0.778-0.214c0.078-0.026,0.16-0.097,0.237-0.209c0.17-0.193,0.256-0.509,0.256-0.951v-19.909H831.779z
				 M837.644,798.113v6.93c0,0.327-0.093,0.595-0.282,0.799c-0.185,0.202-0.426,0.304-0.72,0.304c-0.282,0-0.517-0.093-0.704-0.28
				c-0.186-0.186-0.307-0.444-0.363-0.771l-0.169-1.033c-0.17-1.051-0.499-1.959-0.982-2.729c-0.306-0.475-0.718-0.864-1.238-1.169
				v-2.05H837.644z"/>
			<path style="fill:#3B3B3B;" d="M845.353,802.415l0.864,3.51l-3.001,10.947c-0.09,0.314-0.135,0.609-0.135,0.88
				c0,0.713,0.333,1.222,1,1.525l0.594,0.273c0.371,0.17,0.559,0.45,0.559,0.845c0,0.566-0.41,0.849-1.237,0.849h-4.304
				c-0.42,0-0.747-0.087-0.993-0.263c-0.241-0.175-0.363-0.415-0.363-0.72c0-0.327,0.25-0.6,0.746-0.813
				c0.465-0.203,0.806-0.388,1.023-0.55c0.222-0.164,0.435-0.388,0.637-0.67c0.317-0.464,0.576-1.079,0.781-1.847L845.353,802.415z
				 M846.521,798.113h6.829l4.712,19.909c0.09,0.352,0.191,0.661,0.304,0.934c0.104,0.215,0.329,0.389,0.679,0.525
				c0.294,0.123,0.498,0.248,0.609,0.373c0.113,0.124,0.169,0.294,0.169,0.507c0,0.589-0.439,0.882-1.32,0.882h-8.456
				c-0.338,0-0.609-0.081-0.813-0.245c-0.203-0.163-0.306-0.381-0.306-0.653c0-0.226,0.047-0.394,0.137-0.509
				c0.091-0.11,0.294-0.253,0.611-0.422c0.224-0.115,0.384-0.238,0.474-0.374c0.091-0.137,0.136-0.304,0.136-0.507
				c0-0.193-0.018-0.362-0.051-0.511l-0.544-2.456h-4.727l0.456-2.016h3.796l-3.118-13.776L846.521,798.113z"/>
			<path style="fill:#3B3B3B;" d="M870.449,801.077l8.523,17.337c0.205,0.395,0.479,0.683,0.83,0.863
				c0.307,0.157,0.512,0.306,0.62,0.442c0.108,0.135,0.162,0.321,0.162,0.559c0,0.304-0.114,0.548-0.34,0.728
				c-0.192,0.158-0.6,0.236-1.222,0.236h-7.947c-0.608,0-1.004-0.039-1.186-0.119c-0.393-0.168-0.592-0.456-0.592-0.863
				c0-0.146,0.038-0.275,0.118-0.381c0.08-0.109,0.227-0.242,0.438-0.398c0.384-0.284,0.57-0.544,0.562-0.78
				c-0.01-0.191-0.115-0.479-0.306-0.865l-8.319-16.759c-0.137-0.282-0.283-0.504-0.442-0.667c-0.158-0.166-0.366-0.315-0.625-0.451
				c-0.227-0.111-0.381-0.237-0.467-0.371c-0.086-0.137-0.128-0.322-0.128-0.561c0-0.339,0.122-0.576,0.366-0.71
				c0.243-0.137,0.674-0.204,1.296-0.204h7.896c0.574,0,0.99,0.073,1.243,0.22c0.256,0.148,0.383,0.386,0.383,0.711
				c0,0.329-0.188,0.617-0.559,0.866c-0.17,0.125-0.286,0.227-0.349,0.313c-0.06,0.084-0.092,0.2-0.092,0.348
				C870.314,800.729,870.359,800.898,870.449,801.077z M866.265,812.975l0.932,1.93l-1.052,1.713
				c-0.387,0.633-0.575,1.135-0.575,1.509c0,0.542,0.306,0.939,0.914,1.185c0.339,0.137,0.57,0.273,0.694,0.409
				c0.125,0.135,0.188,0.321,0.188,0.559c0,0.315-0.136,0.577-0.407,0.779c-0.102,0.078-0.216,0.129-0.338,0.152
				c-0.125,0.022-0.363,0.033-0.712,0.033h-4.373c-0.361,0-0.646-0.075-0.855-0.228c-0.208-0.153-0.314-0.364-0.314-0.638
				c0-0.214,0.065-0.393,0.196-0.533c0.128-0.14,0.357-0.273,0.685-0.397c0.847-0.327,1.504-0.863,1.966-1.611L866.265,812.975z
				 M874.261,805.771l-0.946-1.882l0.946-1.608c0.214-0.372,0.323-0.695,0.323-0.965c0-0.249-0.077-0.492-0.229-0.731
				c-0.151-0.237-0.351-0.411-0.601-0.525l-0.594-0.271c-0.111-0.057-0.211-0.162-0.297-0.321c-0.084-0.158-0.126-0.317-0.126-0.476
				c0-0.271,0.096-0.485,0.288-0.643c0.19-0.158,0.444-0.237,0.762-0.237h4.899c0.315,0,0.576,0.068,0.787,0.211
				c0.21,0.143,0.313,0.326,0.313,0.55c0,0.273-0.103,0.511-0.307,0.714c-0.078,0.067-0.315,0.207-0.71,0.424
				c-0.803,0.44-1.469,1.079-2.001,1.915L874.261,805.771z"/>
		</g>
	</g>
	<g>
		<rect x="294.365" y="766.679" style="fill:#161D21;" width="117.092" height="170.037"/>
		<g>
			<g>
				<g>
					<rect x="301.965" y="818.067" style="fill:#47A0E2;" width="16.578" height="16.575"/>
					<rect x="301.965" y="847.657" style="fill:#FFFFFF;" width="16.578" height="16.578"/>
					<rect x="301.965" y="877.244" style="fill:#FFFFFF;" width="16.578" height="16.58"/>
					<rect x="301.965" y="906.834" style="fill:#FFFFFF;" width="16.578" height="16.576"/>
				</g>
				<g>
					<rect x="330.405" y="818.067" style="fill:#47A0E2;" width="16.577" height="16.575"/>
					<rect x="330.405" y="847.657" style="fill:#FFFFFF;" width="16.577" height="16.578"/>
					<rect x="330.405" y="877.244" style="fill:#FFFFFF;" width="16.577" height="16.58"/>
					<rect x="330.405" y="906.834" style="fill:#FFFFFF;" width="16.577" height="16.576"/>
				</g>
				<g>
					<rect x="358.839" y="818.067" style="fill:#47A0E2;" width="16.58" height="16.575"/>
					<rect x="301.965" y="810.716" style="fill:#FFFFFF;" width="16.578" height="2.273"/>
					<rect x="330.405" y="810.716" style="fill:#FFFFFF;" width="16.577" height="2.273"/>
					<rect x="358.839" y="810.716" style="fill:#FFFFFF;" width="16.58" height="2.273"/>
					<rect x="358.839" y="847.657" style="fill:#FFFFFF;" width="16.58" height="16.578"/>
					<rect x="358.839" y="877.244" style="fill:#FFFFFF;" width="16.58" height="16.58"/>
					<rect x="358.839" y="906.834" style="fill:#FFFFFF;" width="16.58" height="16.576"/>
				</g>
				<g>
					<rect x="387.279" y="818.067" style="fill:#47A0E2;" width="16.578" height="16.575"/>
					<rect x="387.279" y="847.657" style="fill:#47A0E2;" width="16.578" height="16.578"/>
					<rect x="387.279" y="877.244" style="fill:#47A0E2;" width="16.578" height="46.166"/>
				</g>
			</g>
			<rect x="300.542" y="773.338" style="fill:#FFFFFF;" width="104.739" height="30.735"/>
		</g>
		<path style="fill:#FFFFFF;" d="M398.08,811.852c0,1.555-1.261,2.809-2.813,2.809c-1.548,0-2.807-1.254-2.807-2.809
			c0-1.549,1.259-2.808,2.807-2.808C396.818,809.044,398.08,810.303,398.08,811.852z"/>
	</g>
	<g>
		<path style="fill:#47A0E2;" d="M674.342,811.81H532.684c-7.828,0-14.172,6.344-14.172,14.174v89.685
			c0,7.825,6.344,14.169,14.172,14.169h141.658V811.81z"/>
		<path style="opacity:0.3;fill:#FFFFFF;" d="M566.266,811.81v88.665c0,7.614-11.817,7.614-11.817,0V811.81h-21.765
			c-7.828,0-14.172,6.344-14.172,14.174v89.685c0,7.825,6.344,14.169,14.172,14.169h44.164V811.81H566.266z"/>
		<g>
			<g>
				<path style="fill:#EBE5EE;" d="M633.056,776.207c0-6.035-4.891-10.934-10.927-10.934H463.636
					c-6.036,0-10.928,4.899-10.928,10.934v92.574c0,6.035,4.892,10.929,10.928,10.929h158.493c6.036,0,10.927-4.894,10.927-10.929
					V776.207z"/>
				<rect x="452.708" y="851.861" style="fill:#161D21;" width="180.347" height="15.766"/>
				<rect x="463.004" y="807.927" style="fill:#F76031;" width="128.016" height="16.883"/>
				<rect x="463.004" y="830.78" style="fill:#F76031;" width="128.016" height="4.119"/>
				<rect x="463.004" y="797.622" style="fill:#F76031;" width="64.008" height="5.022"/>
				<rect x="463.004" y="789.542" style="fill:#F76031;" width="64.008" height="5.023"/>
			</g>
			<path style="opacity:0.2;fill:#FFFFFF;" d="M622.129,879.71h-78.842c0.003-0.151,0.018-0.292,0.018-0.441V765.273h78.825
				c6.036,0,10.927,4.899,10.927,10.934v92.574C633.056,874.816,628.165,879.71,622.129,879.71z"/>
		</g>
		<path style="fill:#47A0E2;" d="M721.752,811.81h-47.41h-3.935H577.08c-7.827,0-14.167,6.344-14.167,14.174v89.685
			c0,7.825,6.34,14.169,14.167,14.169h93.328h3.935h47.41c7.825,0,14.172-6.344,14.172-14.169v-89.685
			C735.924,818.153,729.577,811.81,721.752,811.81z"/>
		<path style="opacity:0.3;fill:#FFFFFF;" d="M597.852,811.81H577.08c-7.827,0-14.167,6.344-14.167,14.174v89.685
			c0,7.825,6.34,14.169,14.167,14.169h20.772V811.81z"/>
		<path style="fill:#FFD11D;" d="M587.847,834.902c0,3.394-2.752,6.15-6.152,6.15s-6.156-2.756-6.156-6.15
			c0-3.405,2.756-6.159,6.156-6.159S587.847,831.497,587.847,834.902z"/>
	</g>
	<polygon style="fill:#D6D4D4;" points="438.558,359.674 462.447,657.512 739.554,657.512 763.442,359.674 	"/>
	<g>
		<rect x="462.447" y="317.406" style="fill:#47A0E2;" width="277.107" height="340.105"/>
		<path style="fill:#161D21;" d="M518.937,353.502c0,4.45-3.606,8.056-8.056,8.056c-4.45,0-8.056-3.605-8.056-8.056
			c0-4.448,3.607-8.055,8.056-8.055C515.331,345.447,518.937,349.054,518.937,353.502z"/>
		<path style="fill:#161D21;" d="M698.813,353.502c0,4.45-3.604,8.056-8.054,8.056c-4.451,0-8.058-3.605-8.058-8.056
			c0-4.448,3.606-8.055,8.058-8.055C695.208,345.447,698.813,349.054,698.813,353.502z"/>
		<g>
			<path style="fill:#FFFFFF;" d="M514.455,352.484v-58.961c0-46.835,38.103-84.939,84.939-84.939h3.214
				c46.834,0,84.938,38.105,84.938,84.939v58.961h6.425v-58.961c0-50.38-40.986-91.365-91.363-91.365h-3.214
				c-50.379,0-91.365,40.985-91.365,91.365v58.961H514.455z"/>
		</g>
	</g>
	<g>
		<path style="fill:#FFFFFF;" d="M656.675,487.461c0,30.748-24.928,55.675-55.678,55.675c-30.748,0-55.672-24.927-55.672-55.675
			c0-30.749,24.924-55.678,55.672-55.678C631.747,431.783,656.675,456.712,656.675,487.461z"/>
		<g>
			<polygon style="fill:#47A0E2;" points="609.188,482.426 605.555,482.426 590.401,482.426 591.657,488.083 605.529,488.083 
				609.193,488.083 614.075,488.083 615.576,482.426 			"/>
			<path style="fill:#47A0E2;" d="M592.1,501.738c-3.144,0-5.692,2.548-5.692,5.685c0,3.142,2.548,5.685,5.692,5.685
				c3.133,0,5.678-2.543,5.678-5.685C597.777,504.286,595.232,501.738,592.1,501.738z"/>
			<path style="fill:#47A0E2;" d="M613.493,501.738c-3.144,0-5.692,2.548-5.692,5.685c0,3.142,2.549,5.685,5.692,5.685
				c3.136,0,5.681-2.543,5.681-5.685C619.174,504.286,616.629,501.738,613.493,501.738z"/>
			<g>
				<path style="fill:#47A0E2;" d="M627.905,468.817c-0.273-0.089-0.54-0.125-0.811-0.125c-1.211,0-2.332,0.785-2.696,2.008
					l-0.376,1.261H582.42l-2.143-8.01c-0.312-1.251-1.444-2.144-2.732-2.144H563.02c-1.559,0-2.821,1.26-2.821,2.824
					c0,1.548,1.262,2.813,2.821,2.817h12.311l7.315,28.955c0.308,1.255,1.446,2.149,2.731,2.149h34.461
					c1.242,0,2.346-0.826,2.696-2.014l7.26-24.215c0.089-0.278,0.122-0.55,0.122-0.811
					C629.916,470.295,629.131,469.175,627.905,468.817 M617.914,492.338l-0.173,0.576h-30.152l-3.775-15.316h38.517L617.914,492.338
					z"/>
			</g>
		</g>
	</g>
	<g>
		<path style="fill:#F76031;" d="M318.925,986.65c0,0.764-0.797,1.388-1.776,1.388h-27.924c-0.976,0-1.782-0.624-1.782-1.388
			v-39.657c0-0.761,0.806-1.382,1.782-1.382h27.924c0.979,0,1.776,0.621,1.776,1.382V986.65z"/>
		<path style="fill:#F9F9F9;" d="M315.367,945.611h-10.076v42.427h10.076c0.979,0,1.782-0.624,1.782-1.388v-39.657
			C317.149,946.232,316.346,945.611,315.367,945.611z"/>
		<polygon style="fill:#FFD11D;" points="749.541,945.611 727.271,945.611 434.488,945.611 386.173,945.611 309.792,945.611 
			309.792,988.038 386.173,988.038 434.488,988.038 727.271,988.038 749.541,988.038 846.48,988.038 846.48,945.611 		"/>
		<polygon style="fill:#161D21;" points="749.541,961.13 727.271,961.13 434.488,961.13 386.173,961.13 309.792,961.13 
			309.792,972.512 386.173,972.512 434.488,972.512 727.271,972.512 749.541,972.512 846.48,972.512 846.48,961.13 		"/>
		<polygon style="fill:#F9F9F9;" points="846.223,988.155 831.176,966.82 846.209,945.486 914.992,966.82 		"/>
		<polygon style="fill:#161D21;" points="886.306,957.922 886.306,975.711 914.992,966.82 		"/>
	</g>
</g>
</svg>
